<?xml version="1.0" encoding="UTF-8"?>
<svg id="Capa_1" xmlns="http://www.w3.org/2000/svg" version="1.1" viewBox="0 0 792 612">
  <!-- Generator: Adobe Illustrator 30.3.0, SVG Export Plug-In . SVG Version: 2.1.3 Build 182)  -->
  <defs>
    <style>
      .st0 {
        fill: #2255a2;
      }

      .st1 {
        fill: #5e8ecb;
      }

      .st2 {
        fill: #cf1922;
      }

      .st3 {
        fill: #131313;
      }
    </style>
  </defs>
  <path class="st1" d="M277.9,182.7c0-.1,0-.5.6-.6,0,.4-.2.7-.6.6Z"/>
  <path class="st1" d="M247.1,163.8c1.6.6,3.4.5,5.3.5h9.9c2,0,4.2-.2,6,.7s.3,1.6.4,2c.2,1.2,1.8,1.8,2.6,1.8,2.4,0,3.7-4.2,7.3-2.2l1.5-1.7h8.1c2.7,2.7,5.7,0,6.7,2.6,2.2.6,4-.3,6.1-.9s4.2.1,6.1.1c.3.5.6.9.4,1.8-.4,1.7,1.5,2.5,1.4,3.2s-2.3,2.1-1.1,3.7,2.2,1,2.9.4c2.1-1.8-1-4-.4-4.8.8-1.1,1.2-2.2,1-3.5,1.7.6,4.6.5,6.8-.1s3.4-1.7,5.1-.9-2.4,3.7-1,7.2l1.9,1c.7.4-.6,1.9-.7,2.5-.7,4.5.2,8.5.7,12.9l-.2,6.8c0,.8-.4,1.4-1.4,1.1.2-1.1.3-1.9,0-3.2-3.3,1.9-3.2,6.1-.3,9.4-.6.8-1.2.9-2.4,1.5,1.8,1.3,3.3,3.3,3.1,5.8s-4.2,7.9-3.2,11,2.2,5.1,1,7.7-2.5.3-4.1,4.6,2.1,3.1,2,4.3-1.6,1.1-1.6,2.3c2.8-.7,2.4,2.5,4.2,3.2s1.5-1,2-1.4c3.5-2.2,9.7-1.3,10.2-.8.8.8-1,1.5-.9,2.2,0,1.3,4,1.5,7.1-1.2s2.1-1,3.1-.6c2.2.8,7-1.9,13.5.8s2.1.4,3.8.3h5.3c2-.2,4.4-2.6,6.9.4,5.4-.9,10.4-1.9,15.9-1.5l5.9.5c2.6.2-.3,1.5,1.3,6.5s-.9,10.1.8,17.4l1.1,4.9c.5,2.2.7,4.2-.4,6-.6-1.2-.4-1.8-.4-3.1-2.6.7-3.9,3.7-2.4,6.1s1.1,1.2.5,2.1c-1.2,2.1,2.4,3.9,1.5,5.6-1.6,2.9-2.7,5.6-3,8.9s-4.1,2-8.2,1.7l-1.8,1.3c-1.1.8-5.8-2.8-6.9-2.8l-.6.8c.8.4,1.9.6,2.8,1.5s-1.4,1.8-5.8.7l-2.6-.6-.4-3.7c-3.5.8-6.4,1-9.8.7-.3.6-.2,1.2-.1,1.6l-5.7-.5c-2-.2-4.1-.8-6.1-.4l-6.3,1.4c-.2-.5-.5-1.4-1.2-1.6-2.4-.8-3.4,3-6.2,2.7l-2.6-.3c0-1.2,0-2.5-.2-3.8-6.5,1.7-10.7-.6-10.1,2.6-.1-.3-1.4-.3-1.4-.6v-15c3.2.1,6.1,1.6,9.2.8-.2-.7-.4-1.1-.4-1.6,1.2-.1,2.6,0,3.2.4s.3,1.4.5,1.3l4.9-.3c0-.7-.7-1-1.3-.5-2.1-.5,3.6-2.4,4.9-2.1l9.2,1.8,8.8.6,13-.2c2.1,0,3.4-.8,4.4-2.6s2-2.3,1.3-3.6l-1.8-3.4c-.2-.4-1.8-.6-1.6-1.7s3.8-1.7,3-3.8c-.4.6-2.7,1-2.8.2-.3-2.3.7-5.1,1.3-7.6-1.9-1-4-1-6.4-.2-.5-1-.3-1.6-.6-3-1.6,2.8-6.8,3.7-7.2,3.5l-5.1-1.5c-1.4-.4-3-.5-4.2-1.4s-2.3-1.3-3.7-.8c-3,1.2-7.7.6-14.1,2l-4.1-.2-7,1.4c-1.9.4-3.4-.3-5.2-.6l-11.4-1.9c-1.4-.2-2.8.5-3.1,1.6l-1.3-1.2v-5.8c0,0-.6-3.7-.6-3.7l.4-7.3c0-1.5-1-3.2.1-4.6,1.8-2.3,1.2-6.6-.1-9s1.7-3.1,0-5.6-1.5-6.7.2-8.9c-.5-1-1.6-2.1-1.6-3.2l.5-6.5c0-1.4.6-2.4.2-3.6.4,0,.6-.5.8-.7.4-.4.9-.8,1.1-1.6l.8-3c.1-.6.4-1.3.2-2.1s-1.2-1.4-2-1.3v-1.9c-.1,0,1.4.9,1.4.9,1.1.7,2.5,0,3-1.1s0-2.1-1-2.8l2.4-1.2c1.2-.6.9-2.7-.2-3.4s-2.1-.2-2.5.5c-1.2,1.7.5,3.4,0,3.8l-3.1,2.1c-.2-.3-.5-.5-.4-.8.2-1.1,2.4-2.2,1.6-2.6-1.3-.7-4.8-1.1-6.3.2s-2.8,1.3-3,.3l-.7-2.8-3.8,3.5c-.5.5-2.1-1.7-4.4,0-.4-.3-.9-.4-1.6-.6-2-.4-.8-2.9-1.8-3.6s-.7-.2-1.2-.3h-1.8c-.1-.8-.1-1.9-.7-2.7s-2.4-.8-3.1,0-.5,2.7.5,3.2,1.7.2,2.7,0c.4,1.2.6,2.4.5,3.7-2,.2-4-.1-6.2-.7l-5-1.5c-1.5-.4,1.9,4.9.1,8.5s-2.5,3.6-1.4,6l1.7,2,1.4,8.5c.6,3.5-2.3,9.6-2.9,10.1-2.6,2.2,5.1,7.5,1.3,16.7s-.4,5,0,7.2l.9,6.4-1.1,2.1c-.7,2.8-.3,5.5.8,8.4l-5-.2c-1.8,0-3.4-.1-5.1-.5-5.1-1-10,3.9-15.5.6s-2.3-1.2-3.4-.5-2.2-.5-2.8-.4c-1.6.3-3.4,1.5-5.5,1.4s-4,.9-5.8.2-2.7-2.1-4.7-2l.3-2c-1.3-.9-2.5-.7-3.9-.4-5.5,1.3-10-1-12.5.5s-3.5.7-5.2-.3-3.5-.7-5.4-.9,0,2.1-1.1,6.4,4,9.1,3.3,11l-2.1,5.8c-.3.9-1.6,1.5-2.1,2.1,2.3.3,2.7,2.4,4.4,2.1l6.9-1.3c3.4-.6,6.8-.8,10.2-.2l8.2,1.3c1.5.2,2.5,1.5,4.5,1.2l4.9-.5c2.3-.3,4-.8,6.4-.7s5.9.1,8.6,1.5,3.8.9,5.9.3c3.4-.9,6.9-.3,10.3.2l4.3.6c-.6,1.5-.8,2.7-.5,4.1,1.1,4.8-3.1,8.8.2,15.4s1.1.4,1-.2l-.3-4.7c-.1,0,.9-.1,1.1,0,.9,1.3.5,3.1.4,4.7l-.2,4.7c0,2-.1,3.8.6,5.6s.5,4.5.3,7l-.6,7.1c-.2,1.9-1.1,3.3-.5,5.4l2.5,9.4c1.4,5.4,1,10.8.3,16.4l-.9,7.8c-.2,1.5-.8,2.6.6,3.8s1,4.2,3,6.9,0,3.5,1.6,7,.9,6.1,1,9.1-.7,4.1-.9,6.4l-.8,8.4c-.2,1.7-3.2,4.3-2.6,7.4l1.1,6.3c.2.9,6-1.7,10.9.2s2.1,1.6,3.7.3c.3,1.2-.2,1.5-.4,2.3-.3,1.4.5,3.3,1.7,4.2s1.3-.7,1.5-1c.4-.5,1.1,0,.6.6s-.4,1.1-.2,1.3c.9.7,2.5.6,3.1-.3s1.7-2.8,1.9-4.5-1.2-1.1-1.7-.9c-.9.4-1.2,1.5-2.2,1.2-.1-.7-.1-2.2.5-2.9s2.1-1.3,3.4-1.4c.2.9.2,1.8.7,2.5s2.1.6,2.3,1.2c.4,1.1,1.1,1.8,2,1.7,1.6-.2,1.9-4.1,3.3-3.6s-.1,4.4-.5,4.6c-2.1,1.6-.7,4-2.2,4.2s-2.1-1.6-3.6-1-1,2.8-3.2,3.5-2.1,2-1.3,3.2,1.3.6,1.7.7c.7.2.6,1,.3,1.4s-.4.4-1,.4l-16.6.7c-3.8.2-7.7-.6-8.1-1.5s0-1.1.5-1.7c2-2.5,3.6,1.1,7.3-.1l4.2-1.4c2.4-.8,2.3-4.2,1.1-6.2s-2.5-3.2-4.4-3.5-4,0-5.5,1.6c-2.4,2.6-3.9,5.7-4.5,9.1s-1.4,0-1.6-.8c-.9-3.4-3.1-6.4-6.3-8s-4.9,0-4.9,1,1.8,1.1,2,3.1l.7,6.5.8,2.7c-2.5.3-4.2,1.7-5,1.4s-1.2-3-.8-4.8,1.1-.1,2.5,1.9,2.1,0,1.9-.6l-2.9-7.3c-.3-.7-1.4-1.4-1.8-1.9l1-4.6,1.7,1.3c1.2.9,3.8-7.3,3.8-13.3s-.3-4.2.6-6l1.6-.9c.7-.4.9-3.3,0-3.9l-5.4-4c-.9-.6-2.4,0-3.1.3-.7-3.4,2.3-5.1-.4-9.1s-1.9-1-1.7-1.4l1.1-2c.2-.4-.4-2.2.4-2.4s3.4-.7,4.1-.1,1.3,1.5,2.9,1.4,3.8-.5,4.5-2.5-.3-1.6-.5-2.2c1.5-1.4,3.2-2.6,4.1-4.6s-2.9-3.5-4.8-1.6c-2.6,2.6-7.4-2-14.3,2.4-.8.5-1.5.9-2.5,1,1.2-3.8,4.5-9,3.7-12.9l-1.1-5.5c-.5-2.6,2.5,1.4,3.6,1.6s1.4-.7,1.1-1.5c-1.2-3-.3-5-2.5-6.3s-1.8-1.8-2.6-3.2c-.9.5-1.4,1.4-1.1,2.5l.7,3.2c.2.9-.2,1.4-1,1.1-1-3.7-1.6-7.3-1.5-11.1l.8-3c.4-1.8.4-3.9,1.4-5.3s2.7.6,4.1,4.5c1.2,3.1,3.8,4.9,6.6,6.4s3.8,2.3,6.3,2.4c2-5.5-4.4-11.4-9.6-15.2l-4-3c-.3-1.7,4.9-.3,5.1-3,.4-4.5-5.6-8-6.4-10.5s.2-5.1.2-7.4,2.7-1,3.3-1.9.2-.7,0-1.2l-2.6-7.3-.2-3.4-2.9.3c-.3-.4-.2-1.1,0-1.2,1.9-.7,3,.3,4.3-.2s.5-1.3.2-1.3c-5.4,0-7,2.4-10.8,1.5s-8.4,1.4-11.3.2c1.8-1.6,4.1-1.8,3.7-2.8s-.7-.6-1.2-.4l-2.8,1-7.2,1.5-3.2,1c-.9.3-1.5.5-1.7,1.5-.3,1.4-2.7,1.7-3.2.6.7-.3,1.3-.5,1.8-1-.8-1.1-1.8-1-2.5-.8s-1.1,2.3-2.5,2.2l-7.8-.3c-1,0-1.8-.4-2.3-1.1,4.3-3.2,8.9-3,7.8-8.9l-5.6,1.8-3.9,3.7c-.9.9-2.8-1.7-4.8,0s-6,.7-10,3.2c-.8,0-.7,1.2,0,1.1,5.4,1.1,8.7-2.6,9.7-2s-.2.7,0,1.1c-1.5,0-2.8.8-4.2,1.3-3,1.1-11.1.7-11.4-1.6l-1.1-8.6c-.2-1.8,3-.1,6.3-3.4s2.5-2,4.2-2.8-.1-1.5-.5-1.5c-2.4,0-4.5.9-4.8-.1-.5-1.9-.6-3.6-1.6-5.3s0-2.4.9-3.4-.3-2.8-1.6-2.9-1.4-.3-1.6-.8c-3.4-6.4-.1-9.9-.6-10.7s-1.3-.8-1.3-1.5c0-2.7,1.3-5.3,1.6-8l.4-4c.5-4.6,5.8-10.4,8.3-8.2s-.4,1.4-1.2,1.2c0,1.5,3.9,1.7,6.3.7s6-.8,9.1-1.2,7.3-.5,10.6,1.8,1.8.3,2.4,0,1.3-2.1.6-2.5-1.3.5-1.8.4l-3.7-.7c-.6-.1-1.1-.2-1.2-1.2,2.5-.5,4.7.3,7.4.5l3.4-1.3c-.5,2.6,1.9,4.4,4.9,5.6s2.6-.6,2.9-1.6-2.7-3.1-1.1-2.9c5.9.9,9-2.4,11.8-1.1s6.1.3,6.8,2.3-.6,3.1,0,3.8,2.3,0,2.4-.9.3-1.7.7-1.7c1.4-.2,2.6,1,3.4,2.1.1-2.7-.2-5-1.6-5.8s-3.9,1.4-3.9-.7v-5.2c-.1-3.6,3.3-5.8.8-8.7-.6.4-.9,1.3-1.3,1.3-.5,0-.8-.4-.8-1.1l.6-10c0-1.3,1.2-2.4,2.6-2.4.3.8.4,1.9,1.1,2.6s3.1.6,3.6-.8-3-2.4-1.6-3.8-1.6-2.2-1.7-3.9,2-2.1,1.5-3.5-3.7-.4-4-2.5l.5-3c.2-1.1,3.3-.3,3-2.6s.4-1.8,1.3-1.8c2.5-.2,1.1-3.5,3.5-3.5s1.7-.9,1.5-2.1c-.3-2,2.7-.7,3.4-1.8s-.5-2.9.8-3.1c.4,1.2,1.4,1.6,2.2,1.5,1.6-.1,2.1-2.5,2.7-2.1s1.5,1.1,2.3,1,1.6-.4,1.9-1.3c.4-1.4-.7-2.5-1.8-2.6s-2.1.5-2.5,1.9c0,.8-.8,1-1,.1-.7-.9-1.6-1.2-2.5-.9s-1,.7-1.2,1.5c-.7,1.9-3.7-.4-4.4,2.2s0,1.4.3,2.5c-1-.5-1.5-.6-2.2-.6-2,0-.9,3.1-3.6,3.6s-.9,3-2.6,3.6c-3.2,1-.5,4.6-2.8,4-.8-3.9.6-7.9-.1-12.4s0-4.9.2-7.5-1.2-2.7-1.4-3.8-.2-1.7-.7-2.4l.9-.8c1.3.3,2.6-.3,2.7-2s.6-1.6,1.2-1.8ZM270.4,177.5c-1.1.8-.7,2.4-.1,3s1.7.6,2.4.2c1.1-.6,1.3-1.9.8-2.7s-1.9-1.4-3.1-.5ZM310.4,179.7c.2-1.6-.8-2.6-1.9-2.5s-2.1.9-2,2.3.2,1.3.5,1.5c1,.8,3.2.4,3.4-1.3ZM375.3,298.2c-.4-.5-1.1,0-.6.5l.6-.5Z"/>
  <path class="st3" d="M523.3,411.4h-28.4c-.5,0-.5-2.1,0-2.2,1.3-.2,1.6-.9,1.6-2.1l-.2-8.5c0-.8-.4-1.3-.8-1.5-1.4-1-4.3,1.3-4.3,5v5.5c0,1.4,1.7,1.2,2,2.3s.1,1.3-.5,1.3h-7.8c-.7-2.1,1.7-2.3,1.7-3v-9.2c0-1.1-.6-1.7-1-1.9s-1.4-.3-1.9.2c-1.5,1.2-2.1,3.3-2.2,5.4v4.4c0,1.2.5,1.9,1.5,2.4s.5,1.9,0,1.9l-9.3.2c-1.7,0-3,.3-4.3-1.1s-1.1-.4-1.6,0c-2.3,1.8-5.7,1.7-7.4-.8s-.9-5.6,1.4-7c2.1-1.2,4.4-1.2,6.6-1.3v-3.5c-.2-.9-1-1.2-1.4-1.3s-1.7-.1-1.8.7l-.2,2.8c0,1.1-2,1.6-2.7,1.2l-1.6-1c0-1.2-.2-2.7.5-3.8,1.3-2.1,3.7-2.8,6.1-2.7,3.4.1,5.4,2.5,5.5,5.8v5.7c.1,1.3,3.5.3,2.9,1.9s-.1,2,1.3,1.9v-11.4c0,0-2.1-1.3-2.1-1.3-.5-.3-.3-1.6,0-2.1h5.5c.7-.1,1.2.5,1.8.9,4.9-3.9,8,1.4,8.5.8,2.2-2.5,5.8-3.1,8.3-.7s1.6,2.8,1.6,4.4v8.2c0,.5.2,1.1.6,1.1,2.2-.2,3.7.6,3.7-1.1l-.2-10c0-.6-1.8-1-2-1.4s-.2-1.5,0-2.1c2.4.2,4.3-.2,6.5-.6v14.7c0,.8,1.6.7,2,.7,1,0,1.6-.3,1.6-1.3v-18.1c0-.5-1.9-.9-2.1-1.4s-.2-1.6,0-2l6.4-.5v22c0,1.2,2.9,1.4,3.7.7s.4-.8.4-1.4v-9.4c0-.9-1.5-1-1.9-1.2s-.6-1.6-.2-2.2l6.4-.6.2,14.7c0,.5,1.7.6,1.6-.6-.2-2.4,1-4.7,3.4-5.5.9.2.9-1,0-.9-1.5,0-2.3-1.1-2.2-2.3.1-3.4,3.1-5.3,6.4-5.2,3.2,0,5.5,2,5.6,5.3v6.8c.1,0,2.7.5,2.7.5.6,1.4.7,3.1-.4,4.3-1.5,1.7-4.3,1.5-5.7-.2s-.9-.3-1.2,0c-1.9,1.9-5.7,2-7.4-.2-.5.5-1,1.2-1.7,1.2h-3.7ZM536.4,401.4c.2-1.9.1-2.8-.3-4.1s-2.6-1.1-2.8-.2c-.3,1.6,0,3-1.2,4.3,2,.4,2.9.2,4.3,0ZM467.2,407.7c1-1.2,1.4-2.2,1.3-3.6-1.1-.2-2.3,0-3.3.6s-1.7,2.4-.9,3.8c1,.5,2.1.3,3-.8ZM534.3,408.5c1.4-1,1.9-2.3,2.1-4.1-1.5-.5-3.5,0-4.4,1.5s-.4,1.7,0,2.2,1.4,1,2.4.4Z"/>
  <path class="st3" d="M331,300.4v5c-.1,0,0,26,0,26,1.3.4,2,.4,3.1.4.1,1.3.2,2.4-.1,3.6h-8.8c-.5.2-1-1.2-1.1-1.4-4.2,3.3-10.1,2.3-13.1-2.1-.7,1.3-.6,2.1-.5,3.4h-13.3s0-3.2,0-3.2l2.8-.6-2.6-6.9c-.2-.4-.8-.8-1.4-.8h-7.6c-.7,0-1.5.5-1.7,1.1l-2.4,6.5,2.5.7v3.2s-10.4,0-10.4,0v-3.3c0,0,1.5-.2,1.5-.2,1.2-.1,1.9-.7,2.3-1.7l10.7-29.5c.2-.6.2-1.3.6-1.5,1.2-.8,4-.4,4.2.3l4.1,11.3,7.2,20.1c.4,1,1.4,1.1,2.5,1s1.1-.7.7-1.4c-2.4-3.8-2.4-11.1-.4-15.3,4.3-9,14.3-5.6,14.3-6.4l.2-7.4-2.9-.4c-.8-.1-.7-1.1-.8-1.5-.6-3.1,3.6-.9,10.1-2.6.3,1.3.3,2.6.2,3.8ZM295,317.7l-2.3-6.4c.2-1.3-1.5-1.3-1.3-.1l-2.9,8.4h6.6c.4,0,.2-1.3,0-1.9ZM324.3,325.6v-10.3c0-1.6-1.1-2.4-2.5-2.7-2.7-.5-4.8.7-5.7,3.3-1.5,4.2-1.5,8.9.1,13,.9,2.4,3.8,3,5.8,1.5s2.2-2.8,2.3-4.9Z"/>
  <path class="st0" d="M304.7,371c.2-.5,2.6-.6,2.5-1.2l-.3-15.9-7.3,17.5-.7,2.3c-1.3.4-2.7.4-4.1,0l-5.1-13.4c-.8-2.2-1.2-4.5-2.9-6.4v15.6c-.1.7,2.1.7,2.4,1.1.6.7.5,2.3.2,3h-10.2c-.3-1.1-.3-2-.2-3.2l3-.3v-27.1c-1-.5-1.9-.5-3-.7-.2-1.3-.2-2.2.2-3.2l8.8.2c.9,0,1,1.1,1.2,1.7l8.1,20.6c0,.9,1.3.9,1.2,0l8.8-22.4h8.6c.7,0,.9.6.9,1.3v1.2c0,.8-2.2.4-2.8,1s-.4.8-.4,1.4v6.7c0,0,0,18.8,0,18.8,1.1.6,2,.7,3.1.8v3.1s-12.6,0-12.6,0c-.1-.7-.3-2.1.1-3Z"/>
  <path class="st3" d="M415.6,325.6c-.3-2.6-.4-5.4.3-7.8,1.9-6.7,8.2-10.4,15.3-8.7s5.5,3.9,5.3,7.5-.2,3-1.7,3.8-4.2.6-5.2-1,1.6-4.6-.5-6.2-5,.3-6.2,3.6c-2.1,5.9-.6,13.9,3.5,15s3.7,0,5-1,1.9-2.8,2.3-4.6h3.8c-1.5-5.9.7-12.8,5.3-15.7,3.4-2.1,8.1-2.4,11.6-.4s4.2,4.4,4.2,7.2v5.9s-14.7,0-14.7,0l.6,3.9c.3,1.8,1.4,3.9,3.3,4.5,3.8,1.3,7.4-1.5,7.7-5.5,1.4-.2,2.6-.1,3.9.5-.4,3.2-1.8,6-4.5,7.7-6.3,3.9-14.7.8-17-6.8-1.2.1-.8,1.3-1,1.9-1.2,4.1-4.9,6.3-8.9,6.5-6.4.3-11.5-3.9-12.3-10.2ZM452.3,319.2c0-2.6-.2-4-1.2-5.5s-2.4-1.3-3.7-.9c-2.1.6-3.2,3.3-3.7,6.6h8.5Z"/>
  <path class="st3" d="M453.4,226.3c0-2.5.3-5-.8-6.9s-3.2-1.6-4.6-.6c-3.7,2.7-3.7,9.6-3.7,15.4s-.4,2.7.5,3.4,1.8.5,2.5.6v3.7s-13.5,0-13.5,0v-4.1s3.5,0,3.5,0v-19.1c0-.8-1.6-.6-3.6-1v-3.9c.1,0,9.9-.4,9.9-.4.5,0,.9,1.6,1.1,2.4,4.2-3.6,11.2-3.4,14,.5s1.8,3.9,1.8,6.1v13.7c0,.6.3,1.3.5,1.5.8.6,3-.1,3,.6v3.7s-13.5,0-13.5,0v-3.7s2-.4,2-.4c.5-.1,1-.5,1-1.1v-10.3Z"/>
  <path class="st3" d="M158.4,359.5c3.1-.6,4.7-3.3,4.5-6.3-.3-6.8-6.9-9.8-14-8.6l-16.2,2.6c-1.6.3-1.7-1.1-1.6-3.5l22.9-3.7c2.4-.4,4.7-1.7,5.5-4s0-7.1-2.8-9.1c-2.8-2.1-6.3-2.8-9.8-2.3l-18.4,2.6-.5-3.6,20-2.9,12.7-1.9c.3.9.8,2.6.2,3.4s-5.8.9-3.8,1.9c4.3,2.1,6.3,6.2,6.2,10.9s-1.9,6.6-5.6,7.9c5.4,1.8,8.1,5.3,8.6,10.3s-2.3,9.6-7.4,10.5l-23.9,4.3c-.4-1.3-.5-2.4-.5-3.9l14.6-2.4,9.1-1.8Z"/>
  <path class="st3" d="M370.8,218.9c-1.9-1.5-4.3-.6-5.4,1.1s-2.3,5-2.3,7.9v9.3c0,.6,2.1.9,2.5.8.3,1.6.2,2.6,0,3.9h-13.1c-.4-1.3-.3-2.4,0-3.9,2.1-.4,3.5,0,3.5-1.4v-18.5s-3.5-.3-3.5-.3c-.3-1.4-.3-2.5,0-4l9.9-.6,1.1,2.6c3.5-3.7,10.4-3.5,13.2,0s2.2,4.1,2.2,6.5v15.2c.1,0,3.5.3,3.5.3.1,1.5.2,2.6-.2,4h-12.9s-.1-3.9-.1-3.9l2.7-.5v-15.7c0-.9-.2-2.2-1.1-2.9Z"/>
  <path class="st3" d="M170,211.5c-.3.5-.5.9-.7,1.1s-.8.1-1.3-.2l-7.1-4.7-28.8-18.9c-.4-.2-.7-.3-.9-.6s-.1-.8.2-1.3l8.4-12.7c2.2-3.4,5.5-6,9.5-7.1,8.3-2.3,17.3,3.4,23.9,9.2,8,6.9,9.4,15.8,3.7,24.6l-6.9,10.7ZM169.3,206.5l6.4-10.7c2.1-4.9,1.4-10.4-2.3-14.1l-3.8-3.7c-3.7-2.7-7.3-5.4-11.6-6.9-5.4-2.1-11.4-.5-14.5,4.3l-7.6,11.4,11,7.3,20.7,13.6c.6.4,1.5-.6,1.8-1.2Z"/>
  <path class="st3" d="M435.5,412.9h9.7s7.5,0,7.5,0h18.6s10.6,0,10.6,0h6.8c0,0,10.6-.1,10.6-.1h24.4s12.2,0,12.2,0h7.1c0,0-.1,3.1-.1,3.1h-134.3c-.3-1.1-.2-1.9-.1-3h9.6c0-.1,17.6,0,17.6,0Z"/>
  <path class="st3" d="M410.3,226.8c2.9-.9,5.6-1.3,8.9-1,.5-4.8.4-8.5-2.8-8.5s-2.2.2-2.7,1.4-.1,2.5,0,3.6c.2,2-1.2,3.2-3,3.3s-3.6-1-4.1-3.1c-.6-3,.8-5.8,3.3-7.5s4.3-1.7,6.8-1.8c5.1-.2,9.4,3.1,9.4,8.3v10.3c.1,2.2,3.6.8,4,1.4,1.3,1.8,1.4,4.7.2,6.7-1.9,3-6.2,3.6-8.9,1.3l-1.6-2.2c-3.4,4-9.3,4.8-13.1,1.4s-2.6-5-1.9-7.8,2.6-4.8,5.4-5.7ZM416,236.9c2.4-1.9,3.2-4.3,3.2-7l-4.1.4c-2.9.3-4.8,3.6-3.4,6.3s2.9,1.4,4.2.3Z"/>
  <path class="st3" d="M516.9,226.8c2.9-.9,5.6-1.3,8.9-1,.2-2.3.5-4.6-.4-6.9s-3.7-2.1-4.9-.6-.4,2.4-.2,3.4c.4,2.2-.8,3.8-2.9,3.9s-3.5-.8-4-2.6c-.9-3,.4-5.9,2.7-7.8s4.5-1.9,7.2-2c5.2-.2,9.4,3.2,9.4,8.5v10c0,2.3,3.7.8,4.1,1.4,1.4,2.2,1.2,5.7-.7,7.7s-5.4,2.2-7.7.7l-2.2-2.3c-2.9,3.2-7.3,4.3-11.2,2.5s-3.7-3.2-4-5.7c-.4-4.2,1.8-7.9,5.7-9.1ZM523,236.6c2.1-1.9,2.7-4.2,2.7-6.6-1.8-.1-3.3-.2-4.8.5-2.5,1-3.9,4.2-2.2,6.5s3.2.7,4.3-.4ZM533.8,234.9c.4-.7-.5-1-.6-.3,0,.7,0,1.6.2,1.9s.9-.7.3-1.6Z"/>
  <path class="st3" d="M456,561.7c-2.2,5.4-7.1,8.8-13.3,8.3-3.5-.3-6.4-2.2-8.4-5.1-3.2-4.7-3.9-10.1-4-15.8s5.3-13.4,13-13.3c2.4-.3,4.4.3,7.3,1.3l-3-13.8c-.2-1-.4-1.9-.2-2.8,1.4-.3,2.5-.6,3.7-.4l2.1,9.8,5.8,25.8,3.1,10.1c-1.6.5-2.7.7-4,.5l-2-4.5ZM452.5,561.7c1.6-2.9,2.3-6,1.6-9l-2-9.8c-3.2-5.4-12.5-4.8-16-.3-3.3,4.4-2,12.9.6,18.7s2.8,4.1,5.1,4.9c4.1,1.4,8.5-.5,10.7-4.5Z"/>
  <path class="st3" d="M482.4,310.3c1.4,2.1,2.3,4.4,2.3,7v12.9c0,.5.2,1.1.4,1.3.6.6,3.1,0,3.2.7l.3,2.9h-13.2c0,.1,0-3.4,0-3.4.7.4,2.9,0,2.9-.8v-13.2c0-1.3-.5-3.1-1.6-3.8-2-1.2-4.1,0-5,1.9s-1.7,4.5-1.6,7v8.4c.1.6,2.1.7,2.5.6v3.4c0,0-12.2.2-12.2.2-.5-1.2-.6-2.4,0-3.7.7.4,2.9,0,2.9-.7l.2-16.3c0-2.4-3-1.3-3.2-1.9-.4-1.2-.2-2.3,0-3.6h5.4c0,0,4-.4,4-.4l.5,2.5c5.5-5.3,11.2-1,12.1-.9Z"/>
  <path class="st3" d="M639.2,368.6c2.9,3.6,3.3,7.2,2.4,11.2s-5,8.8-10.5,9.1c-5.9.4-11.8-1.4-16.7-4.6-4.5-3-6.5-7.9-5.5-13.2.8-4.1,2.9-7.4,6.4-9.6l-16.7-4.4c0-.9.2-1.9.8-3s1.3-.4,1.9-.2l19.7,5.2,19.4,4.9,4.3.6c0,.8,0,2.6-.8,3.2s-5.9-.5-4.8.9ZM635.7,383.4c4.4-4,4.1-10.5.2-14.4s-3.5-3.1-5.8-3.6l-8.8-2.2c-3.6-.3-6.6,2.4-8.1,5.4-2.4,5.1-.5,10.6,4.3,13.2s14.3,5.2,18.2,1.6Z"/>
  <path class="st3" d="M266.6,108.1c-.2,4.4-1.7,7.5-5,10-5.8,4.3-11.9,3.2-16.8-2.2s-10.5-18.4-3.1-25.1,7.4-4.1,12.1-4l-8.9-15.1c1-1,2.1-1.6,3.5-1.7l10.2,17.2,9.8,16.2,4.7,6.8c.6.9-2.9,2.1-3.2,1.7l-3.4-3.6ZM255.8,117c5.1-.9,8-5.2,7.9-10s-1.2-6.3-2.9-9l-3.9-6.1c-1.8-2.9-9.6-2.6-14,2.6s-1.4,9.6,1.4,14.3,6.3,9.2,11.4,8.3Z"/>
  <path class="st3" d="M396.4,236.3c0,2.2,1.7,1.2,4.7,1.5.2,1.4.2,2.3,0,3.9h-7.4c-2.7,0-5.1.5-7.7,0v-3.9c0,0,3.5-.1,3.5-.1v-19.7s-3.6-.3-3.6-.3v-3.9c1.3,0,2.2.1,3.6-.3.5-6.5,3.2-13,9.2-13.6s5.3,1,6.6,3.1,1.3,5.6-.8,7.5-3.4.9-4.5,0c-2.2-1.9.3-5.6-.7-6-2.4-1-3.3,3.7-2.6,9.2l5.5.2v3.8c-2.8.5-5.5-.3-5.5.9v17.7Z"/>
  <path class="st3" d="M546.8,334.1c-2.1,2.4-6.7,2.4-8.3-.5s-2.2,2.6-8.3,2.2-4.9-1.4-5.9-4c-1.3,1.6-.6,2.6-.6,3.7l-7.7-.2-5.5-.2v-3.4c1.1.1,1.9.1,3.1-.3v-17.4c0-.6-.4-1-.9-1.1l-2.2-.3v-3.5s6,0,6,0l3.6-.4v21.5c0,.9.5,1.3,1.5,1.4l2.8.3c-1.1-2.5-1-4.9,0-7.1s3.8-3.7,5.7-4-.2-1.2-1.1-.8-2.7-.5-3.1-1.5c-1.4-3.9.6-7.8,4.5-9.1s5.4-1,8-.2,5,3.9,5,7l.2,9.2c0,2.3,2.8,1.1,3.7,1.8s1.5,4.7-.5,7ZM536.2,320.2c.9-.3,1.1-1,1-1.7l-.4-4c-.2-1.7-1.9-2.1-3.2-1.9s-2.2,1.7-1.8,3.3c.5,1.8,0,3.1-1.6,4.4h6ZM534.8,330.1c1.6-1.8,2.3-3.9,2.3-6.1-2.1-.2-4.1,0-5.7,1.2s-2,4-.6,5.7c1.3.8,2.9.5,4.1-.8Z"/>
  <path class="st3" d="M371.5,402.9c.6-.3,1.4-.2,1.8-1.3l-1.9-.2c-1.6-1.9-1.4-4.8.9-6.4s5-1.7,7.2-.4,2.8,2.9,2.8,5v5.6c0,1.2,1.8.8,2.3,1.2,1.1.9.7,3.7-.6,4.7s-3.5,1.1-4.7-.2-3.8,2.9-8.6-.2c-2.1.7-4.1,1.7-6.2,1.3l-2.4-.5c-3.4,1.1-6.5,0-8.6-2.8-.8,1.2-.6,2-.7,2.8l-4.5.5-4.5-.5c0-.3-.2-1.7.2-2s2.1-.6,2.1-1.7v-10.4c-.1-.6-1.6-.8-1.9-1-.6-.5-.5-1.8-.3-2.3.9,0,2.1.2,3.2.1l3.4-.2v14.9c1.2.2,1.9.4,3.1,0-1.9-3.7-2.1-7.9,0-11.3,3.1-5,7.9-3.3,8.7-3.8s.8-1.2.8-2.1c.1-1.9-.7-2.9-2.5-3.2v-2.1s6.8-.3,6.8-.3v22.4c0,1,1.8.9,1.8.4-.3-2.2,0-4.8,2.2-5.9ZM361.1,408.4c1.6-.8,2.3-2.2,2.2-3.8-.2-2.3.5-4.9-.3-7.1s-2.8-.9-3.6-.5c-2.7,1.6-2.8,5.9-1.7,9.7s1.9,2.4,3.5,1.6ZM378.2,401.4v-2.9c-.2-1.2-1.1-1.9-2.4-1.8s-.8.3-1,.5-.2.7-.1,1.1c.3,1.2.1,2.1-.7,3.2h4.1ZM376.7,407.8c1-1.2,1.4-2.3,1.3-3.6-1-.1-2,0-2.9.4-1.5.7-2,2.3-1.3,3.8.9.6,2,.4,2.9-.6Z"/>
  <path class="st0" d="M428.6,358.5c0-1.6,0-3.1-.8-4-1.3-1.5-3.8-.9-4.8.7-2.5,4-2.6,9.7-2.1,14.7s1.9.6,2.2,1.1c.4.6.2,2.1,0,3h-11.2c-.2-.8-.4-2.4.1-3.1s2.7-.3,2.7-1v-16.6c.1,0-2.9-.7-2.9-.7v-2.9s3,0,3,0c2,0,3.6,0,5.5-.6.5.7.5,1.3.8,2.5,1.8-2,4-2.6,6.7-2.5s6.5,2.5,6.6,6.1l.4,12.7c0,.7-.5,2.2.3,2.4l2.4.6c.8.2.4,2.3.2,3.1h-11.5c-.3-.8-.4-2.3,0-3.1s2.1-.6,2.1-1.1l.2-11.2Z"/>
  <path class="st3" d="M632.1,342.9c-3.6-4.5-2.1-12.8-.7-19.6-5.1-.8-9-.7-10.8,3.2-2,4.4-1.4,10.3,2.8,12.1,0,1.3-.5,2.5-1.4,3.5-2.5-1.1-4.1-2.8-5-5.1-2.5-6.3,0-16,6.4-17.4s8.5-.1,12.7.3l6.2.6h8.7c0,.1-.4,3.8-.4,3.8l-5.4.5c3.8,3,5.1,7.3,4.9,12s-4.4,9.7-10.2,9.3-5.8-.8-7.8-3.2ZM641.5,342.3c2.3-.3,4.1-1.8,4.8-4,1.2-3.6.5-7.5-1.9-10.4s-5.6-4.7-9.5-4.1-.7,1.6-.7,2l-1,9.3c-.2,1.9.4,4.1,1.9,5.5s4.1,2,6.4,1.8Z"/>
  <path class="st3" d="M625.1,207.5c-8.1-.5-14.7-9.7-11.9-15.7,1.1-2.2,3-4,5.2-5.1,4.2-2.2,9-1.3,12.1,2.3,2.9,3.3,4.6,7.1,6.7,11.1,4-2.3,7.4-5,6.9-8.6-.7-5.1-5.3-9.3-10.3-7.9-.4-1.3-.7-2.4-.7-4.1,3.3-.8,6.4,0,9,2.2,6,5.3,7.4,13.4,3.3,16.9l-4.4,3.6-15.6,10.5c-.6.4-1.5,1.7-2.2,1s-1.2-1.9-1.1-2.6c.1-1.7,3.7-2.1,3.1-3.6ZM629.7,193.2c-1.9-3.4-6-5.3-9.9-2.8s-3.7,3.2-3.3,5.8c.6,4.1,3.9,7,7.3,8.1s7.6.3,10.8-2.4l-4.8-8.7Z"/>
  <path class="st3" d="M365.4,74.4c-.3-3.5.4-6.7,3-8.9s3.9-2.7,6.3-2.8l11-.6c0-2.5-.3-4.3-.9-6.3-1.2-3.8-5-4.8-9.4-3.9s-4.9,2.3-5.6,5.3c-1.3.2-2.6-.1-3.8-.7,1.4-6.3,5.9-8,12.2-8.3s8.9,2.1,10.4,6.8.8,5.2,1.1,7.9l.5,7.1c.3,3.7.5,7,1.5,10.9l-3.8.2c-.9-1.7-.7-3.2-1.2-5.5-2.6,4.6-6.9,6.9-12.2,6.9s-8.7-2.9-9.2-8.2ZM375.5,79.2c7.7-.7,11.6-6.8,10.5-13.8h-5.9c-2.3.1-4.6.5-6.7,1.3-3.2,1.3-4.5,4.2-4,7.5s2.5,5.4,6.2,5Z"/>
  <path class="st3" d="M564.6,506.8c-5.6,2-12.8-4.4-12.4-10.4s1.8-5.7,3.9-7.6l7.5-7.2c-1.9-2.1-3.7-3.9-6-4.7s-5.1.4-7,2c-2.9,2.5-3.6,5.8-2.8,9.4s-2.3,2.1-3.2,2.1c-1.2-2.7-1.4-6,0-8.8,2.6-5.6,8.8-10.2,14.6-8s3.9,2.2,5.5,3.8l7.1,7.1,7.3,6.4c.4.4.9.5,1,1,0,.9-2.3,2.8-2.8,2.5l-3.8-2.5-.4,5.1c-.3,4.4-4,8.3-8.6,9.9ZM564.9,502.8c3.1-1.6,5.2-4.4,5.6-7.7s-.8-8.4-4.4-10.7-6.4,4.9-8.6,8.2-1.7,6.6,1.1,9,4,2.5,6.4,1.2Z"/>
  <path class="st3" d="M513.4,96.8c5.4-8,14.5-3.5,22.5,2,3.2-4.2,4.2-9.5.3-12.3-7.1-5.1-10.4-.5-11.4-.3s-2.8-2.4-2.5-2.7c2.1-2.5,5.6-3.4,8.8-2.8,8.1,1.5,13.6,8.1,10.9,14l-4,9-6.5,14.1c-1.1,0-2.4-.6-3.3-1.6l1.3-4.9c-6,2.6-12.9,1.4-16.7-3.8s-1.5-7.6.6-10.8ZM531.5,106.8c1.6-1.4,2.3-3.1,3.2-4.9l-6.6-4c-1.3-.8-2.9-1.4-4.5-1.7-3.4-.7-6.3,1.1-7.6,4.2s-1,5,1,6.7c4,3.5,10.2,3.4,14.4-.3Z"/>
  <path class="st3" d="M500.5,545.2c.9-.4,1.3,0,1.8.7l.8,1.1c.5.7-3.7,5.5-9.3,7.8-8.6,3.6-15.1.4-19.4-7.7-3.8-7-4.8-15.8.8-20.8s4.3-2.9,6.8-3.6c8.7-2.7,14.5,3.9,17.4,12.7l-9.6,4.2-12.1,5.2c2.7,6.6,8.2,9.8,14.7,7,3.3-1.4,6.1-3.3,8.1-6.6ZM493.9,534.2c.9-.4.7-1.3.4-1.7l-2.6-3.8c-2.4-3.5-6.8-3.7-10.6-2-6.2,2.8-7.9,9.4-4.4,14.8l17.2-7.2Z"/>
  <path class="st3" d="M207.6,152.9c1.3-.1,2.2.1,3.2.7,0,4.8-3.5,9.9-7.2,13.1s-8.3,4.3-12.9,2.6c-9.5-3.6-17.9-14-13.5-22.9s3.6-5.4,6.3-7.1c6.1-3.8,13.1,0,18.4,5.3s-.2,1.4-.6,1.8l-14.7,16.2c5,4.2,10.4,5.3,15,1.5s5.5-6.4,6.1-11ZM185.4,158.7l6.3-7,5.6-5.9c-2.1-2.6-5.2-4.5-8.8-4.4s-5.6,2-7.1,4.3c-3.4,4.4-1.9,10,2.3,14s1.4-.4,1.6-1Z"/>
  <path class="st3" d="M286.6,95c5.6,5.1,14.1,1.8,18.9-4.3s.8-.5,1-.4c.5.2,1.5,1.4,1.6,2.1s-.4.9-.8,1.3c-6.7,7.9-18.4,10.5-25,2.3-5.1-6.3-8-16.9-4-22.6s8.9-7.1,14.5-6.3,6.4,2.6,7.9,5.5l3.4,6.6c.2.4.2.9.1,1.3-.1.5-.7.5-1.3.8l-19,7.7c-.4.2-1.2.9-1.1,1.2,1,1.8,2.2,3.6,3.6,4.9ZM300,78.7c-1.2-2.8-1.9-3.7-3-5.1-2.6-3.1-6.5-3.9-10.3-2.4-6.3,2.6-7.8,8.4-5.1,15.1l18.4-7.6Z"/>
  <path class="st3" d="M257.8,521.2c-3,5.4-2.9,11.5,1.8,15.1,3.5,2.7,7.8,3.8,12.2,3.8,0,1.6-.2,2.4-.6,3.7-7.4-.7-15-3.3-18.1-10.2-3.3-7.3,1.3-17.1,7.6-22.7,5.4-4.8,13-3.7,18.6,1.4s4.3,6.9,3.6,11.1-3.5,8.9-3.9,9.2-.9.2-1.4,0l-7.2-4-12.7-7.3ZM276.9,528.3c2.7-4,3.6-8.7,1.3-11.9s-5.4-5.1-9.1-5.2c-3.9,0-7.8,3-9.7,7l17.4,10.1Z"/>
  <path class="st3" d="M344.4,242.3c-3.8-.7-7-.7-10.5-.4v-3.9c-.1,0,2.1-.1,2.1-.1.7,0,1.3-.4,1.3-1.2v-29.1c0-.8-.5-1.2-1.3-1.3h-2.2c0-.1,0-4,0-4h14.8s0,3.6,0,3.6c-1.5.5-3,0-3.7,1v30.5c1,.7,2.2.7,3.7.3v4.2s-4.3.5-4.3.5Z"/>
  <path class="st3" d="M475.5,221.7c-2.1,6.7-1,16.1,5.1,16.2,6.1.2,6.4-6,7-6.2,1.3-.3,2.7.2,3.8.7-.5,5.7-4.7,9.6-10.4,9.9s-11.7-3.5-13.2-9.7-.8-7.8.6-11.5c2.2-5.7,8-8.7,14-8s6.3,2,7.5,5.3.4,3.2,0,4.6c-.6,2.4-2.7,3.3-5,2.8s-2.4-1-2.2-2.4l.3-3.7c.1-1.5-1-2.6-2.5-2.5-2.6,0-4.3,2-5.1,4.4Z"/>
  <path class="st3" d="M464.4,261.1l-7.8,21-3.9,9.7c-.5,1.2-1.5,2.3-2.9,2.6-2.1.5-4.3-1.2-4.6-3.3s.5-2.2,1.6-2.6c4-1.6,5.7-6.9,5.3-7.9l-6.2-16.9c-.3-.8-.4-2-1.2-2.5s-1.7-.4-2.6-.5c-.3-1.3-.2-2.2.1-3.3l11.2.2c.7,0,.8,2.3.3,2.7s-1.4.9-1.7,1.8l3.8,9.7,3.8-10.2c-.5-.5-1.4-.8-1.6-1.2-.4-.8-.3-1.9-.2-3h9.8s0,3.2,0,3.2l-3.4.6Z"/>
  <path class="st3" d="M356,312.3l1.8,3c1.2,2.1,1.1,4.9,1.2,7.4.1,5.3-2.6,9.8-6.8,12.2-7.6,2.7-15.3-.5-17.3-8.3s-.7-6.7.3-10c1.7-5.3,6.6-8.4,12.2-8.1,2.6.1,4.8.8,6.9,2.3l1.9,1.4ZM350.9,315.4c-.8-1.9-2.8-3-4.5-2.9-5.1.2-6.9,10-3.9,16.8.9,2.1,2.9,3,4.9,2.7,4.9-.7,6.1-10.4,3.5-16.6Z"/>
  <path class="st3" d="M373.4,328.7c-1.6-4.1-1.7-8.6,0-12.7s.9-2.1.4-3.2c1.4.2,1.9-.5,2.6-1.2,4.2-4.3,13.4-4.1,16,1.3s1.5,3.3,1.5,5v5.2c0,0-14.7,0-14.7,0-.1,2.5.4,4.6,1.5,6.4s3.4,2.8,5.6,2.2c4.6-1.3,4-5.8,5-5.7l3.3.3c-.7,4.8-3.4,8.6-8.3,9.4-5.4.9-10.9-1.9-12.9-7.1ZM387.5,319.4c.2-2.5-.2-4.2-1-6.1-1.6-1.1-3.6-.9-5,.3-1.2,1.7-2.1,3.3-2.2,5.7h8.2Z"/>
  <path class="st0" d="M498,361.4l4.4-1.3,4.7-.2c0-2,.2-3.8-.4-5.6s-1.6-1.9-2.8-1.8-2,.6-2,1.9.6,2.7,0,3.8-2.6,1.7-3.9,1.5c-2.8-1.5-2.8-6.1,0-8.6s4.3-2.3,6.8-2.4c4.6-.1,8.3,2.9,8.4,7.5l.2,13.2c1.2-.5.8-1.9.8-2.8s2.1-.7,2.5-.1c1.1,1.6,1.1,4.1,0,5.7s-2.9,2.2-4.7,2.1-3.2-1-4.3-3l-2.1,1.6c-1.8,1.4-3.8,1.6-6,1.2s-5.1-2.6-5.3-5.8,1-6.4,3.7-7.2ZM506.9,363.5c-2,0-3.4,0-4.8.7-2.2,1.1-3,4-1.2,5.7s6.1-1.6,6-6.5Z"/>
  <path class="st3" d="M334.3,569.2c-7.1-.3-12.5-3.9-14.1-10.9s-.6-4-.2-6.1c.9-5.6,1.6-9.8,5.8-14s3.7-3.1,6.3-3.5c4.8-.7,9.8.6,13.5,3.7,6.3,5.3,4.9,17.8,0,25.1s-6.6,5.9-11.2,5.7ZM342.5,561.1c3.5-6.1,5.1-15.1,1.1-19.6-4-4.4-13.1-5.3-16.6,1s-4.9,15.7-.6,20,12.6,4.6,16.1-1.4Z"/>
  <path class="st3" d="M215.8,474.7c-4.9,6.8-14.3,12.8-21.6,9.2-2.8-1.4-4.9-3.7-6.7-6.2-3-4.3-3.2-9.9-.4-14.4,4.7-7.7,15.2-14.7,22.8-10.4,4.3,2.4,7.6,6.6,8.6,11.5s-.5,7.4-2.7,10.4ZM213.8,470.8c2-3.4,1.7-7.2-.5-10.3-3.2-4.6-7.3-6.7-12.3-4.5s-12.5,8.9-12.1,14.9,3,7.9,6.7,9.7c6,2.8,14.5-3.6,18.2-9.8Z"/>
  <path class="st3" d="M470,91.5l4.6-19.2.9-5.1c.6-3.4-1.7-5.5-4.8-6.3s-8.1-.2-10.7,3.4-2.8,5.7-3.6,8.9l-3.4,13.9c-1.4,0-2.7,0-3.9-.6l7.8-31.8c1.2,0,2.4.3,3.8.8-.3,1.7-1,2.7-.6,4.7,5-5.1,15.3-3.7,18.4,2.3s1,4.9.5,7.2l-2,9.1-3.1,13.6c-1.3-.1-2.3-.3-3.9-.9Z"/>
  <path class="st3" d="M560.4,137.7l11.4-15.7,2.8-4.7c1.4-2.3.3-4.8-1.6-6.6-3.1-2.9-7.4-3.8-11.2-1.8s-4.5,3.4-6.2,5.7l-5.2,7.2c-1.4,1.9-2.5,4.1-4.3,5.6s-2.6-.8-2.9-1.9l18.9-26.3c1,0,3.2,1.3,2.8,2.1l-2.1,4.2c4.7-1.3,8.7-.6,12.1,2.2,4.9,3.5,5.4,8.8,1.9,13.7l-13.4,18.8c-.3.4-3-1.2-3.1-1.5s0-.6.1-1Z"/>
  <path class="st0" d="M403.2,369.8c-2.2,3.3-5.8,4.8-9.2,4.8s-7.1-1.3-9.2-4.4c-3.2-4.6-3.4-10.7-.9-15.5s5.2-5.4,9.1-5.7c6.1-.5,11.2,3.4,12.1,9.5s.4,7.9-2,11.4ZM395.8,353c-2.1-1.2-4.6,0-5.6,2.2-2.8,6.6-1,16.2,4.5,15.5s6.1-14.8,1.1-17.7Z"/>
  <path class="st3" d="M228.8,518.2l11.9-14.3,3.7-5c1.6-2.1,1.4-5.1-.5-7.1s-4.1-3.6-6.7-3.9-7.1,1.1-9.3,3.8l-12.3,15c-1.2-.2-2.2-1.1-3-2.4l12.2-15,8.4-10.2c1.1,0,3.1,1.5,2.5,2.4l-2.2,3.5h6.3c3.7,1.5,7.1,4.1,8.8,7.8s.7,5.9-1,8.2l-5.6,7.3-10.2,12.3c-1.1-.2-2.1-.9-3-2.3Z"/>
  <path class="st0" d="M459.9,368.2c.6-.9.8-2.3,1.3-2.7.8-.6,2.2-.2,3.1.2,0,5.6-4.7,9.3-10.2,8.8-4.9-.5-8.8-3.4-10-8.3s-.7-5.9,0-8.7c1.7-6.4,8-10,14.2-8s6.1,7.4,5.4,13.3h-13.7c.1,2.8.9,5.5,2.8,7.1s5.6.8,7.2-1.7ZM457.9,358.9c.2-2,0-3.8-.9-5.3s-3.8-1.3-5,.1-2,2.9-2.2,5.3h8Z"/>
  <path class="st3" d="M412.6,317.8c0,.3,0,1.3-.5,1.6-.8.5-1.8.3-2.5.2l-.4.4,2.1,1.3c1.7,1,2.7,2.8,3,4.5.8,5.2-3.1,9.8-8.6,10.1s-6.6-.7-9.9-1.6c.5-3.3.7-6.2.5-9.4h3.2s.5-.6.5-.6c-.7-1.9-3.4-2-3.7-6.5s3.8-9.6,9.3-9.2l6.1,1.2c2.5.5.4,3.3.9,7.9ZM409.1,319.3l-.5-3.9c-.2-1.6-1.3-2.5-2.8-2.8s-2.5.2-3.3.9-1.4,2.9-.3,3.8c1.9,1.5,4.4,2,6.5,2.7.2-.2.3-.4.3-.6ZM400.3,324.6l-.6.5c.2,1.6,0,3.9,1.1,5.5s5.2,1.8,7,.1.9-1.4.9-2.1-.4-1.7-1.4-2.1l-3.6-1.4c-1.3-.5-2.3-.7-3.4-.5Z"/>
  <path class="st3" d="M424.1,402.6c.8-.2,1.4-.7,1.9-.9.8-.4,2.5.6,3.6-.5s.4-2.9,0-3.8-1.3-1-1.9-.8c-1.7.5-.3,2.8-1.7,4.3-.5,0-1.1.1-1.6.4-.3,0-1.2,0-1.5-.5-.9-1.4-.8-3.8.5-5.1,2.2-2.3,6.2-2.9,8.6-.8l1.7,1.5c1.2,3.3.2,6.6.8,8.8s.5.7.8.8l1.7.5v3.7c0,0-1.8,1.3-1.8,1.3-1.8.7-3.4,0-5-1.2s-3.1,3.1-7.4.8-1.7.4-2.3.4h-7.2c-.4,0-.5-1.9,0-2.1s1.7-.5,1.7-1v-19.2s-2.4-.6-2.4-.6v-2.2s6.7-.3,6.7-.3l.2,20.5c0,.6,0,2.1.4,2.4,2.2,1.9-.1-5.4,4.3-6.3ZM428.6,407.9c1-1.2,1.4-2.4,1.1-3.7-1.6-.3-2.8,0-3.6.9s-1.2,2.4-.3,3.3,2.1.2,2.7-.5Z"/>
  <path class="st3" d="M494.9,335.9c.2-.7,0-1.4-.9-1.8-4.4-2.2-6.2-8.6-5.5-13.8l.3-2.5.2-1,.5-1.4c0-.1.1-.3.1-.4l2.6-3c3.8-4.4,13.5-5.1,16.5.6s1,4.2,0,6.1-1.9,1.9-3.1,1.9-2.2-.3-2.8-1.4c-.9-1.7.8-4.6-.6-5.9s-1.5-.8-2.4-.6c-6.2,1.3-6,16.7-1.2,18.8,1.7.7,3.7.7,5.2-.3s2.6-3,3-5.1c1.2-.2,2.4,0,3.6.7-.2,5.8-5.4,9.8-11.2,9s-3.1-.3-4.3.3Z"/>
  <path class="st3" d="M159.2,427.3c-6.3-1.9-9.7-12.5-8.8-19.8l3.9.6c-1.4,6.4,1.8,15.2,6.7,15.8s4.1-.4,5.4-2.2,1.2-3.2.9-4.9l-1.4-8.5c-.3-2,0-4.1,1.3-5.8,2.3-3.2,6.5-4.7,10.3-3.5,5.7,1.9,9.4,11.6,8.3,18.6-1.2,0-2.3,0-3.5-.4.9-4.7-.4-9-3-12.6s-4.5-2.9-6.8-1.7c-5.3,2.7-1.3,8.3-1.3,16.6s-6.8,9.3-11.9,7.8Z"/>
  <path class="st3" d="M380.3,574.4c-6.2,1.6-12.5,0-17.4-3.7.7-2.3,1.5-3.6,2.6-2.8,5.1,3.9,12.5,5.3,16.1,1.9s2.1-5.1.6-7.2-3-2.2-4.7-2.9l-7.5-2.9c-3.1-1.2-4.3-4.3-4.2-7.7s2.1-6.9,5.8-7.8c5.3-1.4,11.2-.6,15.8,2.6s-.3,3-.9,3.3c-.9.5-5.9-4.4-13.3-2.6s-3.2,2.5-3.4,4.3.8,4.3,3.2,5.2l5.4,2c5.4,2,8.9,4.2,8.8,9.9s-2.4,7.5-6.7,8.6Z"/>
  <path class="st3" d="M233.7,137.3c-3.7,4.3-9.1,7.7-14.4,7.1v-3.6c7,.3,15.3-6.3,12.7-11.8s-2.6-3.5-5.1-3.4c-6.5.3-12.8,8.5-19.3,2s-3.3-6.4-1.5-10c3-4.7,7.8-8,13.4-9.3.8,1,1.1,2.2,1,3.6-6.7,1-13.6,6.6-11,11.8s3.5,3.3,5.9,2.3l6.9-3.1c2.2-1,4.8-1.8,7.3-1s5.3,3.5,6.3,6.5,0,6.5-2.1,9Z"/>
  <path class="st3" d="M302,259.1l1.3,1.2c3,2.7,3.3,7.4,1.8,11.1s-3.3,5.1-5.7,7.2l-9.4,8.7c-.4.4-1.3,1.6-2,1l-8.7-8c-2.3-2.1-4.6-4.1-6.2-6.8s-2.6-8.4-.2-12.1,8.9-5.4,13.4-2.4l.5-3c.2-1,.3-1.9-.1-2.9-.9-1.9,1.4-3,1.2-3.8s-2.4-2.6-.6-4.2,2.2-.6,2.9.4.6,1.9-.2,2.7c-1.7,1.7,1.2,2.7.4,4.7s0,3.6,1,5.6c3.5-2.1,8.6-1.4,10.7.5ZM295.6,279.2l5.6-5.6c1.7-1.6,2.3-4.2,2.3-6.6,0-3.4-2-6.1-4.7-7s-6.1-.2-8.2,2.4l-2.2,2.7-2-2.9c-1.8-2.6-5.3-3.1-8.2-1.9s-4.5,3.7-4.6,6.9,1.2,5.6,3.3,7.7l4.4,4.3,7.1,6.1c.3.3,1-.3,1.3-.6l5.8-5.4Z"/>
  <path class="st0" d="M354.1,358.8c-1.9-.8-.7-3.9-2.4-5.4s-2.2-1-3.6-.6-1.8,1.2-2,2.1.5,2.3,1.8,2.8l6.3,2.4c2.8,1.1,4.5,4,4,7.4s-3.4,6.2-7.1,6.9-7-.1-10.4-1.5l.2-8.7h3.1c.4,1.4,0,3.4,1,5,1.3,2.2,5,2.1,6.8.4s1-1.5.8-2.4-.8-1.3-1.6-1.6l-5.8-2.2c-3.6-1.4-5.2-5.1-4-8.9,2-6,9.3-6.6,15.9-3.6l-.8,7.8c0,.5-2,.4-2.2.2Z"/>
  <path class="st0" d="M535.1,359c-.3-1.5-.3-3.2-1-4.8s-4.5-2.2-5.9-.2-.7,2.1.2,2.8c2,1.5,4.7,2,6.7,2.7s1.5.9,2.2,1.4c2.4,1.6,3,4.4,2.6,7.3-1,6.3-10.1,8-17.6,4.6l.4-8.7h2.9c.5,1.5.2,3.4,1.2,4.9,1.4,2.2,5.1,2.2,6.8.6s1.1-1.6.9-2.5-.9-1.5-1.8-1.8l-5.4-2c-2.6-.9-4.4-2.8-4.8-5.6-.6-4.9,3.3-8.9,8.3-8.9s5.4.7,7.9,2l-.5,7.8c-1.2.4-2.2.4-3.1.3Z"/>
  <path class="st3" d="M601.8,136.3c-8.1-5.2-19.6,7.4-19.7,14.1s4.3,10,9.4,10.7,3.2-.3,5.1-.7c.3,1.1.5,2.2.4,3.4-6.3,2.4-12-.5-16.2-5.8s-1.9-14.6,4.3-20.8,9.3-7,14.7-5.5c7.3,2,13.9,10.9,10.2,18.5-1.4,0-2.5-.4-3.6-1.2,2.3-5,0-9.7-4.7-12.7Z"/>
  <path class="st3" d="M504.1,72.1c-.9-.3-1.5.2-1.8.9l-5.7,14.8-4.3,11.1c-1.5,0-2.6-.4-3.6-1.2l10.6-27.1-4.5-1.9c.1-1.2.4-2,.9-2.9,3,.4,4.6,2.3,5.4.4l3.4-7.7c1.8-4.1,8.2-4.7,13.1-.7.7.6-.2,2.9-.9,3.1-1.1.4-3.4-2.6-6.3-2.2s-3,1.9-3.6,3.3l-2.4,6c-.2.6,1.2,1,1.6,1.2l6.1,2.4c.2.9-.4,3.1-1.1,2.9l-6.9-2.5Z"/>
  <path class="st3" d="M369.4,300.5c-.3.4-.5,1-.5,1.7v29.1c.1.6,2.3.7,2.5.5,1.2.3,1.2,1.6.8,3.4h-13.4c0,.1-.2-2.7-.2-2.7.1-.2.3-.6,1-.7l2.8-.2v-21.3c.1-2.1.1-3.8,0-5.6l-.3-3.5c-1,0-1.7,0-2.5-.2s-.8-1.4-.6-1.8c0-.5-.1-1,.1-1.6,3.4.3,6.3,0,9.8-.7l.4,3.7Z"/>
  <path class="st0" d="M480,370.2l4.1.5v3.2c-.1,0-13.3,0-13.3,0-.2-.8-.4-2.4.2-3.1s2.7-.3,2.7-1v-16.6c.1,0-2.9-.7-2.9-.7-.1-1.2-.2-1.9,0-3.1,2.8.4,5.8.2,8.5-.4s1.1,1.5,1,1.7c1.9-1.7,3.7-2.1,5.8-1.6,3.5.9,5.2,6.7,3.4,9.2s-4.3,1.7-5.6,0,.4-2.8.4-4.4-.7-1-1.2-.6c-1.7,1.2-2.6,3.2-2.7,5.2l-.4,11.5Z"/>
  <path class="st3" d="M609.8,439.5l-17.1-22.6c.3-1.1.8-2.7,1.6-3.2s1,.4,1.2.6l11.7,15.7,8.5,11.4c.6.8-.9,3.1-1.8,3.5l-33.2-5.7c.2-1.5.8-2.5,1.9-3.6l26.2,4.8,1.1-.9ZM610.5,440.1l-1.2.3c.3.5,1.1.3,1.2-.3Z"/>
  <path class="st3" d="M247.1,163.8c-.6.3-1.1.9-1.2,1.8-.2,1.6-1.5,2.2-2.7,2l-.7.2c-.2-.8-.6-1.9-.3-3,.4-1.8,4-.6,3.2-2.2s-.2-1.2,0-1.6c.5-1.1,3-.5,3.3-2.8s.5-1.1.8-1.2,1-.2,1.6.1c1.5.7.7-1.6,1.5-2.6s2.4-.3,2.9-.5c.7-.3.6-3,2.5-3.2s2.1.8,2.1,2.1-.2,1.2-.6,1.6c-.9.9-2.3,0-2.9.3s-.4,2.6-2.3,2.7c-2.8.1-1.6,3.3-5.3,2.9.1,1,.3,1.7,0,2.2s-1.1,1-1.6,1.3Z"/>
  <path class="st3" d="M242.4,167.8l-.2.6c.5.7.6,1.5.7,2.4-.8.8-1.9,1.2-3,1.3-.5-.9-1.3-2-.5-3.1s2.1-.9,3-1.2Z"/>
  <path class="st3" d="M239.9,172.1c.3.7,1,1.9.8,2.7-.4,1.7-2.1,2-3.4,2.2-.4-.8-1-1.7-.7-2.8s2-2,3.2-2.1Z"/>
  <path class="st3" d="M242.9,198.2c.3.9.7,2.4-.3,3.2s-2.3.4-3.2.4c-.2-.8-.4-2.4.4-3.1s2.3-.4,3.1-.5Z"/>
  <path class="st3" d="M245.6,198.1c-.9-.2-1.8,0-2.7.1-.2-.7-.6-1.5-.4-2.5s1.2-1.4,1.8-1.2c2.3.6-.4-3,2.8-4s.9-3.2,2.6-3.6c2.7-.5,1.6-3.7,3.6-3.6s1.2.2,2.2.6c-.3-1.1-.5-1.7-.3-2.5.6-2.6,3.6-.3,4.4-2.2s.8-1.3,1.2-1.5c.9-.3,1.8,0,2.5.9.2.9,1,.6,1-.1.5-1.4,1.4-1.9,2.5-1.9s2.3,1.2,1.8,2.6-1.3,1.3-1.9,1.3-1.6-.3-2.3-1-1.1,2-2.7,2.1-1.8-.3-2.2-1.5c-1.3.1,0,1.9-.8,3.1s-3.7-.2-3.4,1.8-.4,2.1-1.5,2.1c-2.4,0-1,3.3-3.5,3.5s-1.5.8-1.3,1.8c.3,2.2-2.8,1.5-3,2.6l-.5,3Z"/>
  <path class="st3" d="M237.4,177.1c.4,1,1,2.7.1,3.7s-2.3.6-3.1.6c-.3-.6-.6-1.8-.1-2.6.6-1.1,2.1-1.5,3.1-1.7Z"/>
  <path class="st3" d="M234.5,181.4l.7,1.6c.3.7.2,1.4-.1,1.9-.7,1.1-3.3.6-3.4,3.2s-3.6.4-3.7,2.5-.5,1.7-1.2,2-1.5.3-2.4-.5c-.8.6-.7,1.6-1.1,2.4-.6,1.1-2.2,1.3-3.3.1-.5.6-.6,1.3-.7,2.2,0,1.8-1.9.9-3.1,1.4s-.5,2.7-2.2,3c-3,.5-1.3,4.8-3.8,4s-1.6.7-1.2,1c2.6,2.2-.7,3.5,1.4,5.7s.6,2,.4,3.3c1.2-.3,1.6-.5,2.2-.5,1.2,0,1.9,2.7,3.2,1.4s3.6.8,4.8-.8,3.2-.5,4.8-2.8,3.6.1,3.6-2.1,3.2-.6,3.5-2.7.1-.9.3-1.2c.5-.7,3.2-.2,3-2.5s1.2-2.1,3.4-2.1c.2.7.5,1.5.5,2.5s-.7,1.4-1.5,1.5c-2.6.3-1.8,3.1-3,3.6s-.9.2-1.5,0-1.3.2-1.2,1,0,1.3-.3,1.6c-.5.7-2.6,0-3.8,2.7s-2.6.4-3.2.6-.8,2.5-2.5,2.6-1.7-.3-2.4-1.4l-1.4,2.2c-.4.6-1.1.8-1.6.7s-.8-.3-1.1-.8c-1.4-2.2-3.2.5-4.8-.4s-.5-3.3-2.8-3.3-1.4-.4-1.7-.9-.3-.9-.1-1.5c.3-1,1.2-1.4,2-2-2.2-.5-2.8-1.2-2.9-2.3s.4-1.8,1.5-2.2c1.7-.7.2-2.8.9-3.9s2.3-.5,3.7-1.4c-1.2-1.1-.9-2.1-.1-2.8s1.4-.9,2.3-.5c1.7.7.9-2.4,2.4-3.1s1.4-.3,2.5.5l1-2.5c.5-1.2,2.3-.9,3.2-.5s.1-3.1,2.6-3.3,2.3-3.2,3.4-3.2h1.4c0,0,.8-.8.8-.8-.1-.6-.2-1.8.5-2.4s1.6-.8,2.4-.8ZM231.5,186.1l.6-.7c-.6-1-1.7.1-.6.7ZM224.8,213.7l-.3.8.3.3.3-.3-.3-.8Z"/>
  <path class="st3" d="M494.3,241.8v-3.9c0,0,2.4-.1,2.4-.1.6,0,1-.5,1-1.2l-.2-18c0-.9-2.6-1-3.1-.7-.4-1.6-.3-2.7-.2-4.1h6.7c0,0,3.6-.5,3.6-.5v23.3c0,1.5,1.4,1,3.7,1.3v3.9c-.1,0-13.9,0-13.9,0Z"/>
  <path class="st3" d="M368.7,412.8h20.5c.2,1.2.1,2.2,0,3.1h-63.8s0-3,0-3h20c0-.1,5.6-.2,5.6-.2h6.8c0,0,10.9,0,10.9,0Z"/>
  <path class="st3" d="M459.3,400.9c0,.4,0,1.6-.4,1.9s-1.6.2-1.8-.1c-.4-.7-.5-1.9-1-2.1-1-.4-5.4-.5-5.4.9v7.3c1,0,2.3,0,3.2.3s.5,1.9.1,2.4h-10.4s0-2.3,0-2.3c.5.2,2.3-.3,2.3-.8v-18.7c-.7-.3-1.7-.3-2.2-.9s-.2-1.5-.2-2h12.8s4.7-.5,4.7-.5l-.6,7-1.2,1.9v5.7ZM458.3,394.5l-.7-4.7c-2.3-.3-4.4-.4-6.8,0v8s5.6,0,5.6,0c.3-1.3.8-2.3,2-3.2Z"/>
  <path class="st3" d="M356.8,80.6c.3,1,.6,2,.7,3.1-2.2,1.2-4.8,1.7-7.3.9s-2.6-2.2-2.8-3.7l-7.1-42.8c1.2-.6,2.6-.9,3.7-.7l7.1,42c.3,1.5,1.4,2.4,3,2l2.8-.8Z"/>
  <path class="st3" d="M345.4,387.8c0,.3,0,.7-.1.9-.6.7-2.5.3-2.9,2.7s.2,1.8.8,2.6c-.3,0-.8-.2-1.2-.1s-.5.6-.7,1.1l-5.4,15.7c-.3.8-2.1,1.5-2.4.8l-4-10.7-3.8-10.5c-.3-.7-1.6-.9-2-1.2s-.5-2.2.2-2.2h8c1.1,0-1.1,3-.9,3.3l4.3,12.3,3.9-10.5c1-2.2-1.8-4.9,0-4.9h4.4c.9-.1,1.5.3,1.9.8Z"/>
  <path class="st3" d="M551.7,518c-.3,1.9-2.7,3.4-4.3,4.1s-4.2.1-5.5-1.5l-16.3-20.8-9.7-12.6c.8-1.2,1.8-1.8,3.1-2l25.3,32.4c1.1,1.3,2.9,1.3,3.9,0s1.1-1.2,1.8-1.3,1.9.9,1.7,1.8Z"/>
  <path class="st3" d="M314.5,404.7c1.4-.6,3-.7,4.6-.9.2-1.1.2-2.2-.3-3.1s-2.1-.6-2.3.3.3,1.7,0,2.1c-.6.8-1.6.8-2.2.8-.8-.4-1.1-1.2-1-2.4.2-2.2,2-3.3,4.2-3.4s4.3.6,4.4,2.5l.5,5.8c0,1,1.5.9,1.9,1.3.7.7.3,2.4-.4,3.1-2.4,2.4-3.8-1.2-6,.4s-3.1-.2-4.9,0l-3.5.2-2.9-.2c-.6-1.5,1.3-2.3,1.3-3.4v-11.3c0-1.4-1.3-2-1.6-2.7s.2-1.2.6-1.2h4.4s0,15.8,0,15.8c0,.6,1.1.7,1.1,0,0-1.6.6-3.1,1.8-3.6ZM318.8,406.2c-1-.6-2.1.1-2.6.5s-.7,1.8-.1,2.3,1.8-.1,2.3-.7,1.1-1.7.4-2.1Z"/>
  <path class="st3" d="M312.5,531.6c-.6.3-5.9-5-10.9.4s-2.7,3.7-3.5,5.9l-6.5,17.4-3.6-.9c0-1.2.6-1.9,1-2.9l10.5-28.3c1.4.2,2.5.6,3.5,1-.8,2.2-.9,3.6,0,3.1,3.8-2.1,8-1.3,11.1,1.3-.3,1.2-.7,2.5-1.6,3Z"/>
  <path class="st0" d="M322.5,371.1c.2-.9,3.1,0,3.1-1.8v-16s-2.7-.6-2.7-.6c-.7-.1-.5-2.2-.2-3.2l8-.4c.8,0,1,.2,1,1l.2,19.8c0,.7,2.3,1,2.7.8.3,1.4.2,2.2,0,3.3h-12c-.1-.8-.3-1.7,0-2.8Z"/>
  <path class="st0" d="M365.2,373.7c-.8,0-.7-2.5-.3-3l2.9-.4v-17.1c-1.1-.4-1.8-.5-2.8-.5-.3-1.1-.4-2-.3-3.2h5.5s3.6-.6,3.6-.6v21.4s3.1.3,3.1.3c.3,1.2.2,2.2,0,3.3l-11.7-.3Z"/>
  <path class="st3" d="M407.4,394.5c.5,0,.5,1.8,0,2.1-1.6.3-2.3,1.1-2.8,2.5l-7.1,18.8c-.7,1.8-2.1,2.2-3.3,1.9s-2.7-2.7-1.5-3.4,2.9-1.5,3.7-3.5.8-2.6.2-4.2l-4.1-10.9c-.3-.9-1.6-.8-2.2-1.1s-.4-1.8-.1-2.2l7.9.2c1.2,0-1.3,2.8-.8,4.2l1.7,4.7c-.2.9,1,.9.9,0l2.3-6c-1.1-.3-1.7-2.7-.9-2.9,1.5-.5,4.1-.2,5.9,0Z"/>
  <path class="st3" d="M434.2,83.8l-3.6-.3,1.9-13.8,2-13.7c.2-1.1-.3-2.2-1.4-2.3l-2.5-.4c0-1.2.2-2.1.6-3.2l5.3.6c.5,0,1.9,0,2.1.6.5,2.4-.2,4.8-.5,7.2l-3.2,23.5c0,.4.4,1.8-.8,1.7Z"/>
  <path class="st3" d="M604,402.9c-1-.4-1.8-.7-2.1.3l-1.2,3.2c-1.3,0-2.4-.4-3.3-1.2l2.6-5.9c.4-1,1.4-1.5,2.5-1.1l28.5,11.7c0,1.2-.4,2.2-1,3.2-.8,0-1.4,0-2-.4l-23.9-9.9Z"/>
  <path class="st3" d="M170,451.5c-1.4-.4-2.1-3.1-1.8-3.3l23.8-14.7c2.5-1.6-1.2-3.8-.6-5s1.6-1.2,2.6-1.4l3.4,6.2c.4.7-.6,1.6-1.2,1.9l-26.3,16.2Z"/>
  <path class="st3" d="M142.1,391.5c-.8-1-1.1-2.2-1.1-3.6l15-4.6,11.8-3.7c.9-.3,1.4-1.1,1.1-2.2l-.9-2.7c1-.7,2.2-1,3.4-.8l2,7c-.5.9-1.2,1.2-2.2,1.4l-21.1,6.7-8,2.6Z"/>
  <path class="st3" d="M301.9,200.1c-.2.2-.5.6-.8.7s-1,.2-1.3.5c-1.3,1,.2,4.1-1.9,4.4s-1.7-.1-1.9.6.9,1.5.8,2.1,0,1.7-1.1,2.1c-2.3.9-.1,3.4-2,4.2s-1.9,3-4.3,4.3c1,1,1.4,2.4.6,3.3s-1.4.9-1.5,1.9c1.4.3,1.8,1,1.9,1.7.3,1.8-2.2,2.7-1.1,3.5s1.4,1.9.9,2.9-1.7,1.5-2.9.9-1.2-2.5-.3-3.1l1.7-1.2c-1.8-.6-2.2-1.4-2.2-2.3-.2-2,2.9-3,1.3-3.6s-1.6-1.7-1-2.5c1.3-1.7,1.2-5.2.1-6.5s1.2-2.7,1-3.5-2.3-1.8-1-3.8-1.4-2.8-.8-4.7.9-1.8,2.1-1.6,2.3,1.5,2.1,2.6-1.3,1.5-1.9,1.9l1.8,2c.9,1-.1,2.6-1.5,3.3.6.8,1.2,1.5,1.9,2.1l2.4-1.7c.4-.3-.5-1.9,0-2.9s2.3-.8,2.6-1.6-1.5-3.1,1.1-4.2.2-3.5,2.1-4.4,1.6-.4,2.2.4.6,1.7.8,2.5ZM290.5,214.2l-.3.3.3.3.3-.3-.3-.3Z"/>
  <path class="st3" d="M602.9,181.9c-1.3-.7-2-1.7-2.5-3l13.3-10.6,9.3-7.3-1.8-3.1c-.6-1,1.3-2.2,2.3-2.1l3.4,4.5c.7.9.6,1.8-.2,2.4l-9,7.2-14.9,12.1Z"/>
  <path class="st3" d="M302.3,397.7c.7,2.5-2.1,4.1-4.1,4.2-2.4.1-4-.7-5.2-2.5-.8,1.1-.7,1.6-.8,2.3h-6c-2.4,0-4.4-.2-5.4-2.6-2.1-5,.4-10.2,4-10.2s2.4,0,2.7-1c.7-2-2.9-4-1.3-4.2l4.6-.5v15.1c0,.6.2.9.4,1.1s.9.7,1.8,0c-1-1.6-.9-3.1-.9-4.8,0-3.3,2.2-5.8,5.5-5.9s3.9,1.1,4.5,3.1.5,2.6.3,4.1l-6.7.2c-.8,0,0,3,1.6,3.6s4.4-3.7,4.9-2ZM287.5,391.7c-.2-.9-1.7-1-2.4-.6s-1.1.6-1.4,1.5c-1.1,3.5-.3,7.1,1.8,7,2.2-.1,2.8-4.3,2-7.8ZM299.5,393.8c.2-1.3-.3-2.2-.8-2.6-1.1-.7-2-.1-2.6.5s-.9,1.9-.3,2.1c1.1.5,2.4.3,3.7,0Z"/>
  <path class="st3" d="M311.1,167.6c.2,1.3-.2,2.3-1,3.5s2.5,3,.4,4.8-2,.7-2.9-.4c-1.2-1.7,1.1-3,1.1-3.7s-1.8-1.5-1.4-3.2,0-1.4-.4-1.8l-1.4-1.9c-.5-.7-.1-1.9.3-2.5-.9-.4-1.3-.4-1.9-.4-2.2,0-1.2-2.5-1.8-3.2-.8-1-3.4.2-3.6-1.8s-.2-1.1-.4-1.3c-.7-1.1-3,0-3.7-1.2s-.3-1.2-.2-1.7l-.8-.7c-.6.4-1.4.6-2.1.4s-1.3-1-1.6-2.1-2.4.4-3.9-.3-1.1-1.1-.9-2.1,1.4-1.8,2.3-1.6,1.7,1,2,2.4,2.8-1.2,4.1.4.5,1.9.3,2.6l.7.6c.5-.5,1.1-.9,1.8-1,2.1-.3,1.8,2.9,4.8,3.3s1,2,1.6,2.9,2.2.5,2.9.9c1.1.6-.3,3.3,2.7,3.9s1.2,1.4,1.1,2c-.1.9-.6,1.5-1.5,2.1l3.4,1.2Z"/>
  <path class="st3" d="M505.3,205.9c.4,3.1-1.7,5-4,5s-4.6-2.4-4-5.3,2.2-3.2,4-3.2,3.7,1.1,4,3.5Z"/>
  <path class="st3" d="M520.5,303.6c-.5,2.3-2.4,2.9-4.2,2.7s-3.2-1.8-3.2-3.7,1.3-3.6,3.4-3.8,2.5.4,3.2,1.2,1.1,2.1.8,3.7Z"/>
  <path class="st1" d="M309.7,424.9c-.2-.8-1.3-1.4-2.5-1.2l1,2.5c.5,1.2.9,2.3.9,3.8-.9,0-1.6.2-2.9,0,2.2-3.4-.8-4.9-.1-8.2.9.2,2.1.9,3.3.7s1.5-1.9,1.9-2.8l.5-1c0-.2,1.1-.2,1.2,0l1.9,4.1c.4.8-.1,1.3-.8,1-.4-.7-.8-1.5-.9-2.4s-1.5-.9-1.3.1.6,2,.3,2.9c-1,2.9,0,6.1-1.2,5.1s-.4-.5-.5-1l-.8-3.4Z"/>
  <path class="st3" d="M263.3,152.1c-.5.6-1.4.6-1.8.5-.8-.3-1.3-1.1-1.1-2.2s.8-1.7,1.6-1.8,1.9.3,2.2,2c1.6-.3,0-2.6,1.3-3.5s2.4.3,3.3.3,1.3-2.2,3.4-1.7,1.5.9,1.5,1.8-.7,1.6-1.7,1.9-2-.7-2.5-1.6-1,.3-.9,1c.5,2.7-3.5.8-5.4,3.1Z"/>
  <path class="st0" d="M328.9,346.9c-2.6.2-4-1.5-4-3.7s1.8-3.9,4.2-3.5,3.1,1.6,3.1,3.5-1,3.5-3.3,3.7Z"/>
  <path class="st0" d="M374.3,344.1c-.3,2.4-2.5,3.3-4.4,2.8s-3.1-2.4-2.5-4.7,2.4-2.8,4.1-2.4,3.1,1.9,2.8,4.2Z"/>
  <path class="st3" d="M278.5,182.1c-.5.1-.6.5-.6.6-1,.2-1.9.4-2.7,0s-1.3-2.4-.5-3.2,2.5-.8,3.1,0,.6,1.9.7,2.6Z"/>
  <path class="st3" d="M284.9,186.6c.4,1,.3,2.2-.4,3.1l.6.7c.4,0,1.4-.2,1.9.4,1,1.1.8,2.8-.7,3.8,1.8,1,3.3,1.1,3,3.1s-1.5,1.7-2.4,1.5c-1.5-.3-1.8-1.5-1.3-3s-2-2.4-1.9-4,.5-1.4,1.1-1.8l-.6-.7c-.6.1-1.9.3-2.3-.5s-.2-1.8-.2-2.8c-1.4-.3-2.2-.1-3.2,0,0-1.3-.2-2.5-.5-3.7.4,0,.7-.2.6-.6h1.8c.5,0,.9.2,1.2.3,1.1.7-.2,3.2,1.8,3.6s1.2.3,1.6.6Z"/>
  <path class="st3" d="M302,190.1c0-.3.2-1.1,0-1.3l3.1-2.1c.5-.3-1.3-2,0-3.8s1.5-1.2,2.5-.5,1.3,2.9.2,3.4l-2.4,1.2c1,.7,1.4,2,1,2.8s-1.9,1.8-3,1.1l-1.5-.9Z"/>
  <path class="st3" d="M288.9,243.6c-1.2.4-2.1-.7-2.2-1.3-.6-2,2.1-3.2,1.5-3.6s-1.5-1.2-1.6-1.8,0-1.8.8-2.3c1.2-.6,2.5-.2,2.9.9s.3,2.3-1.1,2.8,1.1,1.7,1.3,3.1-.4,1.9-1.6,2.3Z"/>
  <path class="st3" d="M440,42.6c-1.6.3-2.9.1-4.2-.7-.3-1.2-.5-3,.5-4s3.4-.8,4.6.2c.5,1.6.3,3.1-.9,4.5Z"/>
  <path class="st3" d="M185.5,377.8c-1.3,1.1-2.7,1.3-4.1,1.1-.8-1.2-1.2-2.3-1.3-3.9.8-1,2.8-2,4.1-1.4s1.8,2.7,1.3,4.2Z"/>
  <path class="st3" d="M205,429.4c-1.2-1.1-1.8-2.2-2-3.7.7-1.2,2.4-2.3,3.9-1.8s2.1,2.5,1.6,3.8c-.9,1-1.9,1.5-3.5,1.7Z"/>
  <path class="st3" d="M635.2,156.4c-1.6,0-3-2-2.5-3.3s1.8-2.2,3-2.3,2.9,1.8,2.7,3.2-1.7,2.4-3.1,2.4Z"/>
  <path class="st3" d="M591.5,398.1c-1.7.5-3-.1-4-1.2-.5-1.3-.2-2.6.8-3.7,1.3-.6,3.5-.3,4.2,1.2s-.1,2.7-1,3.7Z"/>
  <path class="st1" d="M311.8,435.3c.3.1-1.4,4.2-4.5,4.2v-3.2c-.1-1.3.1-2.2.8-3.3l.5-.8c.2-.2.9-.2,1,0,0,1.5.7,2.4,2.2,3Z"/>
  <path class="st3" d="M507,392.4c-1.6-.2-2.3-1.7-2.2-2.9s.9-2.4,2.4-2.5,2.6,1.3,2.7,2.5-1.1,3.1-2.9,2.9Z"/>
  <path class="st3" d="M522.2,387.6c1.4-1,3.2-.4,3.8.9s.3,2.6-.8,3.4-2.7.5-3.6-.6-.9-2.6.6-3.6Z"/>
  <path class="st3" d="M347.1,392.3l-.9-2.1c-.4-.8.2-1.7.5-2.3.7-.8,1.7-1,2.4-.8,1.3.4,1.8,1.3,1.9,2.6s-.6,2.5-1.9,2.5h-1.9Z"/>
  <path class="st3" d="M277.8,145.2c1.4.7,1.2,2.5.3,3.2s-2.7.7-3.1-.7,0-1.7.3-2.2,1.5-.9,2.6-.4Z"/>
  <path class="st3" d="M281,145.3c1.2-.6,2.3.2,2.6.8.6,1.2,0,2.4-.8,2.7s-2.1.2-2.6-.5-.4-2.4.9-3Z"/>
  <path class="st3" d="M303.9,195.5c-.7.4-2,1.2-2.9.6s-.8-1.9-.4-2.7.8-1,1.5-1.3c.8,0,1.7.4,2,1.3s0,1.5-.2,2.1Z"/>
  <path class="st1" d="M313.1,411.1c-.2.3-.5,1-1.5.5-.9.4-.5,1.7.6,1.5s1.3,1.6.5,1.8l-3.5.7.3-4.3,3.5-.2Z"/>
  <path class="st1" d="M247.5,321.7c-2.4,2.6.4,5.8-1.7,5.2-1.3-2.5.1-4.8,0-7.5.8-.1,1.3.1,1.6.5s.6,1.1,0,1.8Z"/>
  <path class="st1" d="M276.2,435.2c-1.6.7-2.6,1.3-4.8,1.5-.2,0-.3-.5.3-.4,1.4-1.5,2.7-3.6,4.9-3.6s.6,2.1-.5,2.5Z"/>
  <path class="st1" d="M256.5,344.7c-.7,1-3,0-2.9-1.6s1.5-.8,2.1-.6,1.6,1,.8,2.2Z"/>
  <path class="st1" d="M304.1,435.8c.1,1.5-1.4,3.2-2.6,3.1.4-1.8,1.1-3.1,2.6-3.1Z"/>
  <path class="st1" d="M319.4,426.1c-.1.8-.6,1.4-1.2,1.2s-.8-2.3-.1-2.5,1.5.1,1.3,1.3Z"/>
  <path class="st1" d="M251.3,329.1c-1.2-.2-1.5-1-1.5-2s.6-.6.9-.5.6.3.7.8c.2.4.4,1-.1,1.7Z"/>
  <path class="st1" d="M316,430.4c.2.7-.3,1.2-1.1.9l-.2-2c-.2,0,.7-.2.8-.1.1.2.3.6.5,1.2Z"/>
  <path class="st0" d="M426,401v.7c-.5.3-1.1.8-1.9.9l.3-1.2c.5-.3,1-.3,1.6-.4Z"/>
  <path class="st3" d="M310.4,179.7c-.2,1.7-2.5,2.1-3.4,1.3s-.5-.9-.5-1.5c0-1.4.9-2.2,2-2.3s2.1.9,1.9,2.5Z"/>
  <path class="st3" d="M270.4,177.5c1.2-.9,2.5-.3,3.1.5s.3,2.1-.8,2.7-1.7.5-2.4-.2-.9-2.2.1-3Z"/>
  <path class="st2" d="M295.6,279.2l-5.8,5.4c-.3.3-1,.8-1.3.6l-7.1-6.1-4.4-4.3c-2-2-3.3-4.6-3.3-7.7s2-5.9,4.6-6.9,6.4-.7,8.2,1.9l2,2.9,2.2-2.7c2.1-2.5,5.2-3.3,8.2-2.4s4.8,3.6,4.7,7-.6,5-2.3,6.6l-5.6,5.6Z"/>
</svg>